<svg xmlns="http://www.w3.org/2000/svg" viewBox="0 0 1200 750" role="img" aria-labelledby="title desc">
  <title id="title">Raspberry Pi homelab cover</title>
  <desc id="desc">Abstract server, tunnel, and cloud networking cover art.</desc>
  <defs>
    <linearGradient id="bg" x1="0" x2="1" y1="0" y2="1">
      <stop offset="0" stop-color="#071217"/>
      <stop offset="0.52" stop-color="#0e1018"/>
      <stop offset="1" stop-color="#17110a"/>
    </linearGradient>
    <radialGradient id="green" cx="30%" cy="30%" r="58%">
      <stop offset="0" stop-color="#00e5b4" stop-opacity="0.42"/>
      <stop offset="1" stop-color="#00e5b4" stop-opacity="0"/>
    </radialGradient>
  </defs>
  <rect width="1200" height="750" fill="url(#bg)"/>
  <rect width="1200" height="750" fill="url(#green)"/>
  <rect x="230" y="210" width="310" height="250" rx="28" fill="none" stroke="#00e5b4" stroke-width="6" opacity="0.7"/>
  <rect x="286" y="272" width="198" height="36" rx="18" fill="#00e5b4" opacity="0.28"/>
  <rect x="286" y="340" width="198" height="36" rx="18" fill="#d4a843" opacity="0.34"/>
  <circle cx="312" cy="520" r="18" fill="#00e5b4" opacity="0.82"/>
  <circle cx="384" cy="520" r="18" fill="#d4a843" opacity="0.82"/>
  <path d="M540 335h124c45 0 66 38 99 62 31 23 72 30 132 30" fill="none" stroke="#e8eaf0" stroke-width="4" stroke-dasharray="14 16" opacity="0.5"/>
  <path d="M840 300c65 0 118 43 118 96 0 52-53 95-118 95H708c-65 0-118-43-118-95 0-53 53-96 118-96 24-50 72-78 132-78 55 0 103 30 128 78Z" fill="none" stroke="#d4a843" stroke-width="6" opacity="0.72"/>
  <text x="72" y="108" fill="#e8eaf0" font-family="Georgia, serif" font-size="58" letter-spacing="5">RASPBERRY PI</text>
</svg>
